<svg width="52" height="52" viewBox="0 0 52 52" fill="none" xmlns="http://www.w3.org/2000/svg">
<g filter="url(#filter0_d)">
<circle cx="26" cy="22" r="22" fill="#F5F5F5"/>
<path d="M24.6052 9.90444L21.4318 16.627L14.3316 17.7086C13.0583 17.9015 12.5481 19.5415 13.4714 20.4809L18.6082 25.7107L17.3933 33.0984C17.1746 34.4338 18.5208 35.4341 19.6482 34.8096L26 31.3213L32.3518 34.8096C33.4792 35.429 34.8254 34.4338 34.6067 33.0984L33.3918 25.7107L38.5286 20.4809C39.4519 19.5415 38.9417 17.9015 37.6684 17.7086L30.5682 16.627L27.3948 9.90444C26.8262 8.70615 25.1787 8.69092 24.6052 9.90444Z" fill="#BFBFBF"/>
</g>
<defs>
<filter id="filter0_d" x="0" y="0" width="52" height="52" filterUnits="userSpaceOnUse" color-interpolation-filters="sRGB">
<feFlood flood-opacity="0" result="BackgroundImageFix"/>
<feColorMatrix in="SourceAlpha" type="matrix" values="0 0 0 0 0 0 0 0 0 0 0 0 0 0 0 0 0 0 127 0"/>
<feOffset dy="4"/>
<feGaussianBlur stdDeviation="2"/>
<feColorMatrix type="matrix" values="0 0 0 0 0 0 0 0 0 0 0 0 0 0 0 0 0 0 0.25 0"/>
<feBlend mode="normal" in2="BackgroundImageFix" result="effect1_dropShadow"/>
<feBlend mode="normal" in="SourceGraphic" in2="effect1_dropShadow" result="shape"/>
</filter>
</defs>
</svg>
